<svg xmlns="http://www.w3.org/2000/svg" viewBox="0 0 2000 2000">
  <rect width="2000" height="2000" rx="440" fill="#0a0a0b"/>
  <!-- solid egg -->
  <path d="M1308.99 633.536C1209.88 479.12 1094.37 386.931 1000 386.931 905.121 386.931 789.416 479.126 690.491 633.554 591.727 787.731 532.762 970.231 532.762 1121.74 532.762 1276.12 583.152 1404.44 678.484 1492.81 762.137 1570.36 876.321 1613.07 1000 1613.07 1123.68 1613.07 1237.86 1570.36 1321.51 1492.81 1416.85 1404.43 1467.24 1276.12 1467.24 1121.74 1467.24 970.431 1408.08 787.924 1308.99 633.536Z" fill="#ffb000"/>
  <!-- edge, same line weight as the shine -->
  <path d="M1308.99 633.536C1209.88 479.12 1094.37 386.931 1000 386.931 905.121 386.931 789.416 479.126 690.491 633.554 591.727 787.731 532.762 970.231 532.762 1121.74 532.762 1276.12 583.152 1404.44 678.484 1492.81 762.137 1570.36 876.321 1613.07 1000 1613.07 1123.68 1613.07 1237.86 1570.36 1321.51 1492.81 1416.85 1404.43 1467.24 1276.12 1467.24 1121.74 1467.24 970.431 1408.08 787.924 1308.99 633.536Z" fill="none" stroke="#fff2cf" stroke-width="42" stroke-linejoin="round"/>
  <!-- shine -->
  <path d="M1335.08 1173.85C1323.37 1173.22 1313.43 1182.17 1312.8 1193.84 1311.69 1214.3 1307.7 1234.87 1300.94 1254.98 1297.21 1266.06 1303.17 1278.07 1314.25 1281.8 1316.49 1282.55 1318.77 1282.91 1321.01 1282.91 1329.85 1282.91 1338.09 1277.33 1341.07 1268.48 1349.06 1244.75 1353.77 1220.41 1355.08 1196.13 1355.71 1184.46 1346.76 1174.48 1335.08 1173.85Z" fill="#fff2cf"/>
  <path d="M1296.11 1317.14C1286.51 1310.48 1273.32 1312.87 1266.65 1322.48 1210.39 1403.67 1113.96 1458.21 1026.69 1458.21 1015 1458.21 1005.52 1467.69 1005.52 1479.38 1005.52 1491.08 1015 1500.55 1026.69 1500.55 1127.22 1500.55 1237.64 1438.69 1301.46 1346.6 1308.12 1336.99 1305.73 1323.8 1296.11 1317.14Z" fill="#fff2cf"/>
</svg>
